<?xml version="1.0" encoding="UTF-8"?>
<svg xmlns="http://www.w3.org/2000/svg" viewBox="0 0 1280 720">
  <rect x="0" y="0" width="1280" height="720" fill="#0B1020"/>
  <rect x="0" y="0" width="1280" height="10" fill="#58A6FF"/>
  <rect x="0" y="10" width="1280" height="4" fill="#22D3EE"/>
  <line x1="760" y1="120" x2="760" y2="560" stroke="#243044" stroke-width="1" opacity="0.65"/>
  <line x1="840" y1="120" x2="840" y2="560" stroke="#243044" stroke-width="1" opacity="0.65"/>
  <line x1="920" y1="120" x2="920" y2="560" stroke="#243044" stroke-width="1" opacity="0.65"/>
  <line x1="1000" y1="120" x2="1000" y2="560" stroke="#243044" stroke-width="1" opacity="0.65"/>
  <line x1="1080" y1="120" x2="1080" y2="560" stroke="#243044" stroke-width="1" opacity="0.65"/>
  <line x1="1160" y1="120" x2="1160" y2="560" stroke="#243044" stroke-width="1" opacity="0.65"/>
  <line x1="720" y1="160" x2="1200" y2="160" stroke="#243044" stroke-width="1" opacity="0.65"/>
  <line x1="720" y1="240" x2="1200" y2="240" stroke="#243044" stroke-width="1" opacity="0.65"/>
  <line x1="720" y1="320" x2="1200" y2="320" stroke="#243044" stroke-width="1" opacity="0.65"/>
  <line x1="720" y1="400" x2="1200" y2="400" stroke="#243044" stroke-width="1" opacity="0.65"/>
  <line x1="720" y1="480" x2="1200" y2="480" stroke="#243044" stroke-width="1" opacity="0.65"/>
  <rect x="760" y="170" width="360" height="78" fill="#0F172A" rx="8" stroke="#243044" stroke-width="1"/>
  <rect x="820" y="304" width="260" height="78" fill="#0F172A" rx="8" stroke="#243044" stroke-width="1"/>
  <rect x="900" y="438" width="260" height="78" fill="#0F172A" rx="8" stroke="#243044" stroke-width="1"/>
  <line x1="940" y1="248" x2="950" y2="304" stroke="#22D3EE" stroke-width="2"/>
  <line x1="950" y1="382" x2="1010" y2="438" stroke="#22D3EE" stroke-width="2"/>
  <rect x="88" y="206" width="6" height="188" fill="#22D3EE"/>
  <text x="120" y="258" fill="#FFFFFF" font-family="Arial, sans-serif" font-size="56" font-weight="700">{{TITLE}}</text>
  <text x="122" y="318" fill="#8B9BB4" font-family="Arial, sans-serif" font-size="24" font-weight="400">{{SUBTITLE}}</text>
  <text x="122" y="382" fill="#58A6FF" font-family="Arial, sans-serif" font-size="16" font-weight="700">{{AUTHOR}}</text>
  <text x="122" y="642" fill="#8B9BB4" font-family="Arial, sans-serif" font-size="14" font-weight="400">{{DATE}}</text>
</svg>
